<svg width="287" height="154" viewBox="0 0 287 154" fill="none" xmlns="http://www.w3.org/2000/svg">
<rect width="96" height="154" fill="#C4C4C4"/>
<rect x="76" width="20" height="154" fill="#4F4F4F" fill-opacity="0.4"/>
<rect x="121" y="62" width="59" height="92" fill="#C4C4C4"/>
<rect x="176.293" y="62" width="13.7071" height="92" fill="#4F4F4F" fill-opacity="0.4"/>
<rect x="96" width="14" height="154" fill="#4F4F4F" fill-opacity="0.4"/>
<rect x="273" y="7" width="14" height="147" fill="#4F4F4F" fill-opacity="0.4"/>
<rect x="203" y="7" width="75.9999" height="147" fill="#C4C4C4"/>
<rect x="261.344" y="7" width="17.6566" height="147" fill="#4F4F4F" fill-opacity="0.4"/>
<rect x="12" y="26" width="11" height="11" fill="#5F5956"/>
<rect x="31" y="26" width="11" height="11" fill="#5F5956"/>
<rect x="50" y="26" width="11" height="11" fill="#5F5956"/>
<rect x="50" y="45" width="11" height="11" fill="#5F5956"/>
<rect x="31" y="45" width="11" height="11" fill="#5F5956"/>
<rect x="12" y="45" width="11" height="11" fill="#5F5956"/>
<rect x="12" y="64" width="11" height="11" fill="#5F5956"/>
<rect x="31" y="64" width="11" height="11" fill="#5F5956"/>
<rect x="50" y="64" width="11" height="11" fill="#5F5956"/>
<rect x="215" y="26" width="11" height="11" fill="#5F5956"/>
<rect x="239" y="26" width="11" height="11" fill="#5F5956"/>
<rect x="239" y="45" width="11" height="11" fill="#5F5956"/>
<rect x="215" y="45" width="11" height="11" fill="#5F5956"/>
<rect x="215" y="64" width="11" height="11" fill="#5F5956"/>
<rect x="239" y="64" width="11" height="11" fill="#5F5956"/>
<rect x="154" y="76" width="11" height="11" fill="#5F5956"/>
<rect x="130" y="76" width="11" height="11" fill="#5F5956"/>
<rect x="130" y="95" width="11" height="11" fill="#5F5956"/>
<rect x="154" y="95" width="11" height="11" fill="#5F5956"/>
<rect x="215" y="85" width="11" height="11" fill="#5F5956"/>
<rect x="239" y="85" width="11" height="11" fill="#5F5956"/>
<rect x="239" y="104" width="11" height="11" fill="#5F5956"/>
<rect x="215" y="104" width="11" height="11" fill="#5F5956"/>
<rect x="215" y="123" width="11" height="11" fill="#5F5956"/>
<rect x="239" y="123" width="11" height="11" fill="#5F5956"/>
<rect x="50" y="83" width="11" height="11" fill="#5F5956"/>
<rect x="31" y="83" width="11" height="11" fill="#5F5956"/>
<rect x="12" y="83" width="11" height="11" fill="#5F5956"/>
<rect x="279" y="121" width="33" height="279" transform="rotate(90 279 121)" fill="#4F4F4F" fill-opacity="0.4"/>
</svg>
